<svg width="24" height="24" viewBox="0 0 24 24" fill="none" xmlns="http://www.w3.org/2000/svg">
<path d="M6.51623 14.323L5.02623 20.775C4.93423 21.174 5.09423 21.589 5.43223 21.822C5.60323 21.94 5.80123 22 6.00023 22C6.19323 22 6.38723 21.944 6.55523 21.832L12.0002 18.202L17.4452 21.832C17.7932 22.064 18.2502 22.055 18.5902 21.808C18.9282 21.561 19.0772 21.128 18.9622 20.726L17.1332 14.326L21.6692 10.244C21.9662 9.976 22.0752 9.558 21.9472 9.18C21.8182 8.802 21.4772 8.536 21.0792 8.504L15.3782 8.05L12.9112 2.589C12.7502 2.23 12.3932 2 12.0002 2C11.6072 2 11.2502 2.23 11.0892 2.589L8.62223 8.05L2.92123 8.503C2.52923 8.534 2.19223 8.791 2.06023 9.16C1.92623 9.529 2.02223 9.942 2.30223 10.216L6.51623 14.323ZM9.36923 9.997C9.73223 9.968 10.0522 9.744 10.2012 9.411L12.0002 5.43L13.7992 9.411C13.9482 9.744 14.2682 9.968 14.6312 9.997L18.6032 10.312L15.3322 13.256C15.0482 13.512 14.9352 13.906 15.0392 14.274L16.2922 18.659L12.5562 16.168C12.2202 15.943 11.7832 15.943 11.4472 16.168L7.54323 18.771L8.59323 14.225C8.67123 13.885 8.56723 13.528 8.31723 13.285L5.27923 10.323L9.36923 9.997Z" fill="black"/>
</svg>
