<svg width="24" height="24" viewBox="0 0 24 24" fill="none" xmlns="http://www.w3.org/2000/svg">
<path d="M3 19.723V20.897V21C3 21.553 3.447 22 4 22H5C5.553 22 6 21.553 6 21V20H18V21C18 21.553 18.447 22 19 22H20C20.553 22 21 21.553 21 21V19.723C21.596 19.376 22 18.739 22 18V15C22 14.169 21.493 13.458 20.772 13.155L19.404 9.051C18.995 7.824 17.852 7 16.559 7H7.441C6.148 7 5.005 7.824 4.596 9.051L3.228 13.155C2.507 13.458 2 14.169 2 15V18C2 18.738 2.404 19.376 3 19.723ZM5.5 18C4.672 18 4 17.328 4 16.5C4 15.672 4.672 15 5.5 15C6.328 15 7 15.672 7 16.5C7 17.328 6.328 18 5.5 18ZM18.5 18C17.672 18 17 17.328 17 16.5C17 15.672 17.672 15 18.5 15C19.328 15 20 15.672 20 16.5C20 17.328 19.328 18 18.5 18ZM7.441 9H16.558C16.989 9 17.371 9.275 17.507 9.684L18.613 13H17.819H6.181H5.387L6.492 9.684C6.629 9.275 7.011 9 7.441 9Z" fill="#0E0E0E"/>
<path d="M22 7.38799V5.27899L12.316 2.05099C12.101 1.97899 11.868 1.98299 11.658 2.05999L2 5.57199V7.69999L12.015 4.05799L22 7.38799Z" fill="#0E0E0E"/>
</svg>
