<svg width="22" height="22" viewBox="0 0 22 22" fill="none" xmlns="http://www.w3.org/2000/svg">
<path d="M19.0412 9.30877L17.7872 5.54677C17.4122 4.42202 16.3645 3.66669 15.1792 3.66669H6.82108C5.63583 3.66669 4.58808 4.42202 4.21316 5.54677L2.95916 9.30877C2.29825 9.5856 1.8335 10.2383 1.8335 11V15.5834C1.8335 16.2599 2.20383 16.8447 2.75016 17.1628V18.2389V19.25C2.75016 19.7569 3.15991 20.1667 3.66683 20.1667H4.5835C5.09041 20.1667 5.50016 19.7569 5.50016 19.25V17.4167H16.5002V19.25C16.5002 19.7569 16.9099 20.1667 17.4168 20.1667H18.3335C18.8404 20.1667 19.2502 19.7569 19.2502 19.25V17.1628C19.7965 16.8447 20.1668 16.2608 20.1668 15.5834V11C20.1668 10.2383 19.7021 9.5856 19.0412 9.30877ZM6.82108 5.50002H15.1783C15.5734 5.50002 15.9236 5.75119 16.0482 6.12702L17.0621 9.16669H16.3342H5.66608H4.93825L5.95116 6.12702C6.07675 5.75119 6.42691 5.50002 6.82108 5.50002ZM5.04183 14.6667C4.28283 14.6667 3.66683 14.0507 3.66683 13.2917C3.66683 12.5327 4.28283 11.9167 5.04183 11.9167C5.80083 11.9167 6.41683 12.5327 6.41683 13.2917C6.41683 14.0507 5.80083 14.6667 5.04183 14.6667ZM16.9585 14.6667C16.1995 14.6667 15.5835 14.0507 15.5835 13.2917C15.5835 12.5327 16.1995 11.9167 16.9585 11.9167C17.7175 11.9167 18.3335 12.5327 18.3335 13.2917C18.3335 14.0507 17.7175 14.6667 16.9585 14.6667Z" fill="#0E0E0E"/>
</svg>
