<svg width="22" height="22" viewBox="0 0 22 22" fill="none" xmlns="http://www.w3.org/2000/svg">
<path d="M18.3335 6.41667V4.58333C18.3335 3.57225 17.5112 2.75 16.5002 2.75H4.5835C3.06733 2.75 1.8335 3.98383 1.8335 5.5V16.5C1.8335 18.5176 3.478 19.25 4.5835 19.25H18.3335C19.3446 19.25 20.1668 18.4278 20.1668 17.4167V8.25C20.1668 7.23892 19.3446 6.41667 18.3335 6.41667ZM16.5002 14.6667H14.6668V11H16.5002V14.6667ZM4.5835 6.41667C4.0775 6.41667 3.66683 6.00508 3.66683 5.5C3.66683 4.99492 4.0775 4.58333 4.5835 4.58333H16.5002V6.41667H4.5835Z" fill="#0E0E0E"/>
</svg>
