<svg width="22" height="22" viewBox="0 0 22 22" fill="none" xmlns="http://www.w3.org/2000/svg">
<path d="M11.0003 4.72919C8.74824 4.72919 6.91602 6.56141 6.91602 8.81349C6.91602 11.0656 8.74824 12.8978 11.0003 12.8978C13.2524 12.8978 15.0846 11.0656 15.0846 8.81349C15.0846 6.56141 13.2524 4.72919 11.0003 4.72919ZM11.0003 11.1781C9.69648 11.1781 8.63571 10.1173 8.63571 8.81349C8.63571 7.50965 9.69648 6.44888 11.0003 6.44888C12.3042 6.44888 13.3649 7.50965 13.3649 8.81349C13.3649 10.1173 12.3042 11.1781 11.0003 11.1781Z" fill="#0E0E0E"/>
<path d="M11.0001 0C6.14025 0 2.18652 3.95377 2.18652 8.81354V9.05717C2.18652 11.515 3.59564 14.3791 6.37486 17.5698C8.38958 19.8829 10.3762 21.4958 10.4597 21.5634L11.0001 22L11.5404 21.5634C11.624 21.4958 13.6106 19.883 15.6253 17.5699C18.4044 14.3791 19.8136 11.515 19.8136 9.05721V8.81358C19.8136 3.95377 15.8599 0 11.0001 0ZM18.0939 9.05721C18.0939 13.2108 12.7421 18.2388 11.0001 19.7651C9.25755 18.2383 3.90622 13.2105 3.90622 9.05721V8.81358C3.90622 4.90205 7.08853 1.71974 11.0001 1.71974C14.9116 1.71974 18.0939 4.90205 18.0939 8.81358V9.05721Z" fill="#0E0E0E"/>
</svg>
